# xmcd
#
# Track frame offsets:
#	150
#	20002
#	30207
#	59850
#	76125
#	94923
#
# Disc length: 1697 seconds
#
# Revision: 1
# Processed by: cddbd v1.5.2PL0 Copyright (c) Steve Scherf et al.
# Submitted via: audiograbber 1.83.01
#
DISCID=43069f06
DTITLE=Paul Deslausriers et Dawn Tayer Watson - EP
DYEAR=2011
DGENRE=Blues
TTITLE0=Trill me up
TTITLE1=Can`t buy me love
TTITLE2=Good man
TTITLE3=Small ceremonies
TTITLE4=Getting Ready
TTITLE5=Ne me quitte pas
EXTD=
EXTT0=
EXTT1=
EXTT2=
EXTT3=
EXTT4=
EXTT5=
PLAYORDER=
